<?xml version="1.0" encoding="utf-8"?>
<!-- Generator: Adobe Illustrator 16.0.0, SVG Export Plug-In . SVG Version: 6.00 Build 0)  -->
<!DOCTYPE svg PUBLIC "-//W3C//DTD SVG 1.1//EN" "http://www.w3.org/Graphics/SVG/1.1/DTD/svg11.dtd">
<svg version="1.1" id="Capa_1" xmlns="http://www.w3.org/2000/svg" xmlns:xlink="http://www.w3.org/1999/xlink" x="0px" y="0px"
	 width="141.7px" height="141.7px" viewBox="0 0 141.7 141.7" enable-background="new 0 0 141.7 141.7" xml:space="preserve">
<g>
	<g>
		<path fill="#FFFFFF" d="M70.9,1.5C31.7,1.5,0,33.3,0,72.6c0,31.4,20.3,58.1,48.5,67.5c3.5,0.7,4.8-1.5,4.8-3.4
			c0-1.7-0.1-6.2-0.1-12.1c-19.7,4.3-23.9-9.5-23.9-9.5c-3.2-8.2-7.9-10.4-7.9-10.4c-6.4-4.4,0.5-4.3,0.5-4.3
			c7.1,0.5,10.9,7.3,10.9,7.3c6.3,10.9,16.6,7.7,20.6,5.9c0.6-4.6,2.5-7.7,4.5-9.5c-15.7-1.8-32.3-7.9-32.3-35.2
			c0-7.8,2.8-14.1,7.3-19.1c-0.7-1.8-3.2-9,0.7-18.8c0,0,6-1.9,19.5,7.3c5.7-1.6,11.7-2.4,17.7-2.4c6,0,12.1,0.8,17.7,2.4
			c13.5-9.2,19.5-7.3,19.5-7.3c3.9,9.8,1.4,17,0.7,18.8c4.5,5,7.3,11.3,7.3,19.1c0,27.3-16.6,33.3-32.4,35.1
			c2.5,2.2,4.8,6.5,4.8,13.2c0,9.5-0.1,17.2-0.1,19.5c0,1.9,1.3,4.1,4.9,3.4c28.1-9.4,48.4-36.1,48.4-67.5
			C141.7,33.3,110,1.5,70.9,1.5z"/>
	</g>
</g>
</svg>
