<?xml version="1.0" encoding="utf-8"?>
<!-- Generator: Adobe Illustrator 16.0.0, SVG Export Plug-In . SVG Version: 6.00 Build 0)  -->
<!DOCTYPE svg PUBLIC "-//W3C//DTD SVG 1.1//EN" "http://www.w3.org/Graphics/SVG/1.1/DTD/svg11.dtd">
<svg version="1.1" id="Capa_1" xmlns="http://www.w3.org/2000/svg" xmlns:xlink="http://www.w3.org/1999/xlink" x="0px" y="0px"
	 width="141.7px" height="141.7px" viewBox="0 0 141.7 141.7" enable-background="new 0 0 141.7 141.7" xml:space="preserve">
<g>
	<g>
		<path fill="#FFFFFF" d="M97.4,0H44.3C19.8,0,0,19.8,0,44.3v53.1c0,24.5,19.8,44.3,44.3,44.3h53.1c24.5,0,44.3-19.8,44.3-44.3V44.3
			C141.7,19.8,121.9,0,97.4,0z M128.4,97.4c0,17.1-13.9,31-31,31H44.3c-17.1,0-31-13.9-31-31V44.3c0-17.1,13.9-31,31-31h53.1
			c17.1,0,31,13.9,31,31V97.4z"/>
	</g>
</g>
<g>
	<g>
		<path fill="#FFFFFF" d="M70.9,35.4c-19.6,0-35.4,15.9-35.4,35.4s15.9,35.4,35.4,35.4s35.4-15.9,35.4-35.4S90.4,35.4,70.9,35.4z
			 M70.9,93c-12.2,0-22.1-9.9-22.1-22.1c0-12.2,9.9-22.1,22.1-22.1c12.2,0,22.1,9.9,22.1,22.1C93,83.1,83.1,93,70.9,93z"/>
	</g>
</g>
<g>
	<g>
		<circle fill="#FFFFFF" cx="109" cy="32.8" r="4.7"/>
	</g>
</g>
</svg>
