<?xml version="1.0" encoding="utf-8"?>
<!-- Generator: Adobe Illustrator 16.0.0, SVG Export Plug-In . SVG Version: 6.00 Build 0)  -->
<!DOCTYPE svg PUBLIC "-//W3C//DTD SVG 1.1//EN" "http://www.w3.org/Graphics/SVG/1.1/DTD/svg11.dtd">
<svg version="1.1" id="Capa_1" xmlns="http://www.w3.org/2000/svg" xmlns:xlink="http://www.w3.org/1999/xlink" x="0px" y="0px"
	 width="141.7px" height="141.7px" viewBox="0 0 141.7 141.7" enable-background="new 0 0 141.7 141.7" xml:space="preserve">
<g>
	<g>
		<rect y="44.3" fill="#FFFFFF" width="31.7" height="97.4"/>
	</g>
</g>
<g>
	<g>
		<path fill="#FFFFFF" d="M118,45.4c-0.3-0.1-0.7-0.2-1-0.3c-0.4-0.1-0.8-0.2-1.3-0.2c-1.7-0.3-3.5-0.6-5.7-0.6
			c-18.5,0-30.2,13.4-34.1,18.6V44.3H44.3v97.4H76V88.6c0,0,24-33.4,34.1-8.9c0,21.9,0,62,0,62h31.7V76
			C141.7,61.3,131.6,49,118,45.4z"/>
	</g>
</g>
<g>
	<g>
		<circle fill="#FFFFFF" cx="15.5" cy="15.5" r="15.5"/>
	</g>
</g>
</svg>
