<?xml version="1.0" standalone="no"?>
<!DOCTYPE svg PUBLIC "-//W3C//DTD SVG 20010904//EN"
 "http://www.w3.org/TR/2001/REC-SVG-20010904/DTD/svg10.dtd">
<svg version="1.0" xmlns="http://www.w3.org/2000/svg"
 width="300.000000pt" height="300.000000pt" viewBox="0 0 300.000000 300.000000"
 preserveAspectRatio="xMidYMid meet">

<g transform="translate(0.000000,300.000000) scale(0.100000,-0.100000)"
fill="#000000" stroke="none">
<path d="M0 1500 l0 -1500 1500 0 1500 0 0 1500 0 1500 -1500 0 -1500 0 0
-1500z m1014 675 c67 -34 96 -127 62 -193 -60 -116 -234 -98 -267 28 -10 40
-9 51 10 96 18 41 30 55 64 71 53 24 82 24 131 -2z m922 -426 c38 -12 80 -29
94 -39 14 -9 32 -19 41 -23 9 -3 25 -20 34 -39 70 -132 67 -126 81 -208 8 -49
8 -43 6 -357 l-2 -283 -140 0 -140 0 -1 278 c-2 324 -1 310 -26 359 -33 66
-88 85 -220 74 -27 -2 -90 -80 -102 -125 -7 -28 -11 -147 -11 -315 l0 -271
-140 0 -140 0 0 465 0 465 140 0 140 0 0 -62 c1 -57 2 -61 15 -43 44 62 131
123 187 132 18 3 35 7 37 9 11 11 86 2 147 -17z m-836 -473 c0 -244 -3 -451
-6 -460 -5 -14 -28 -16 -145 -16 l-139 0 0 460 0 460 145 0 145 0 0 -444z"/>
</g>
</svg>
